<svg xmlns="http://www.w3.org/2000/svg" viewBox="0 0 1037.02 791.38"><defs><style>.cls-1{fill:#fdfbfb;}.cls-2{fill:#fbf5f4;}.cls-3{fill:#fbf7f6;}.cls-4{fill:#fbf4f4;}</style></defs><g id="Layer_2" data-name="Layer 2"><g id="Layer_1-2" data-name="Layer 1"><path class="cls-1" d="M621.92,411.6c-15.49-10.38-30.56-20.48-45.69-30.49-.24-.15-1.29.93-2.74,2,4-20,8.06-39.22,11.81-58.52,5.54-28.48,10.48-57.08,16.4-85.48,11.27-54,23-107.94,34.68-161.87,2.43-11.13,4.74-22.47,8.83-33,14-36.16,37.8-49.36,75.67-42.46,9.53,1.74,18.8,4.86,28.9,7.53-2.95,14.25-5.68,27.48-8.47,40.93-6.13-2.09-11.5-4.28-17.06-5.72-14.42-3.75-23.6.56-28.32,14.59-3.72,11-6.08,22.59-8.48,34Q671.54,168.86,656,244.66q-16,77.19-32,154.41C623.17,403.08,622.65,407.16,621.92,411.6Z"/><path class="cls-1" d="M309.67,460.77c-17.47-30.87-25.69-63-21.24-96.8C296.69,301.16,332.21,257.73,389,231.5c25.79-11.9,53.35-13.9,81.24-9.73,16.72,2.5,25.35,13.1,23.79,27.7-1.64,15.35-14,26.16-29.68,26.1-11.42-.05-23-1.13-34.24.18C375.56,282.1,332.68,346.23,348,399c3.35,11.53,2,19.29-6.91,27.57C330.06,436.8,320.6,448.71,309.67,460.77Z"/><path class="cls-1" d="M333.78,495.2l40.11-44.33C401.79,482.63,435,502,478,494.67c42.15-7.19,69.94-33.54,87.78-72.18l45,32.24C584.28,504.19,545,537.44,490.34,549,428.38,562.14,376.9,540.69,333.78,495.2Z"/><path class="cls-2" d="M633.9,589.89c-29.69.06-49.06-19.43-49.07-49.37,0-29.54,20-49.82,49.11-49.74,28.45.08,48.79,20.61,48.89,49.36C682.94,569.88,663.32,589.83,633.9,589.89ZM597,540.44c0,21.77,15.24,37.76,36.22,37.93,21.38.18,37.36-16,37.37-37.77,0-21.5-15.57-37.76-36.36-37.92C612.69,502.5,597.06,518.36,597,540.44Z"/><path class="cls-3" d="M519.55,232c21,2.35,36.29,10.27,47.32,25.17,2.15,2.91,1.24,8.07,1.74,12.2-4.28-.61-8.63-.93-12.8-2-1.67-.43-2.92-2.5-4.39-3.79-9.73-8.53-14.24-8.79-25.18-1.45-8.37,5.61-16.29,5-21.64-1.57-4.82-6-4.69-17.21,1.52-22.25C510.39,234.84,516.32,233.42,519.55,232Z"/><path class="cls-4" d="M436.11,314.58c10.55-.09,16.72,5.64,16.7,15.51,0,9.21-6.27,15.37-15.95,15.71-10.5.37-17.84-6.17-17.73-15.78S425.47,314.67,436.11,314.58Z"/><path class="cls-2" d="M543,330c0,9.77-6.38,15.89-16.54,15.8s-17-6.38-17.08-15.6c0-9.47,6.39-15.4,16.88-15.57S543,320.06,543,330Z"/><path class="cls-1" d="M48,750.35A47.51,47.51,0,0,1,23.56,744,46.83,46.83,0,0,1,6.35,726.7,48.21,48.21,0,0,1,0,702a51.25,51.25,0,0,1,5.82-24.6,45.2,45.2,0,0,1,15.91-17.21,41.86,41.86,0,0,1,22.78-6.35,42.8,42.8,0,0,1,33.55,15.82V622.74a8.55,8.55,0,0,1,2.52-6.43,8.83,8.83,0,0,1,15.21,6.43V702a48.3,48.3,0,0,1-6.35,24.68A46.78,46.78,0,0,1,48,750.35Zm0-15.65a29.66,29.66,0,0,0,15.82-4.26,30.06,30.06,0,0,0,11-11.73,34.77,34.77,0,0,0,4-16.69,34.13,34.13,0,0,0-4-16.69,30.36,30.36,0,0,0-11-11.56A29.66,29.66,0,0,0,48,669.51a29.79,29.79,0,0,0-15.73,4.26,30.89,30.89,0,0,0-11.13,11.56A33.63,33.63,0,0,0,17,702a34.26,34.26,0,0,0,4.08,16.69,30.57,30.57,0,0,0,11.13,11.73A29.79,29.79,0,0,0,48,734.7Z"/><path class="cls-1" d="M222.35,750.35q-14.08,0-24.86-6.17a44.74,44.74,0,0,1-17-17,49.56,49.56,0,0,1-6.17-24.95q0-14.25,6.17-25.12a44.74,44.74,0,0,1,17-17q10.77-6.16,24.86-6.17A48.86,48.86,0,0,1,247,660a44.88,44.88,0,0,1,17,17q6.17,10.88,6.17,25.12a50.15,50.15,0,0,1-6.09,24.95,44.24,44.24,0,0,1-16.86,17A49.19,49.19,0,0,1,222.35,750.35Zm0-15.65a30.48,30.48,0,0,0,16-4.17,29.17,29.17,0,0,0,10.87-11.48,35.09,35.09,0,0,0,3.91-16.86,35.68,35.68,0,0,0-3.91-17,29.05,29.05,0,0,0-10.87-11.56,32.74,32.74,0,0,0-32,0,29.69,29.69,0,0,0-11,11.56,35.14,35.14,0,0,0-4,17,34.56,34.56,0,0,0,4,16.86,29.81,29.81,0,0,0,11,11.48A30.45,30.45,0,0,0,222.35,734.7Z"/><path class="cls-1" d="M391.85,750.35q-14.09,0-24.86-6.17a44.74,44.74,0,0,1-16.95-17,49.56,49.56,0,0,1-6.17-24.95q0-14.25,6.17-25.12A44.74,44.74,0,0,1,367,660q10.77-6.16,24.86-6.17A48.8,48.8,0,0,1,416.53,660a44.74,44.74,0,0,1,17,17q6.18,10.88,6.18,25.12a50.15,50.15,0,0,1-6.09,24.95,44.24,44.24,0,0,1-16.86,17A49.19,49.19,0,0,1,391.85,750.35Zm0-15.65a30.48,30.48,0,0,0,16-4.17,29.17,29.17,0,0,0,10.87-11.48,35.09,35.09,0,0,0,3.91-16.86,35.68,35.68,0,0,0-3.91-17,29.05,29.05,0,0,0-10.87-11.56,32.76,32.76,0,0,0-32,0,29.74,29.74,0,0,0-11,11.56,35,35,0,0,0-4,17,34.45,34.45,0,0,0,4,16.86,29.86,29.86,0,0,0,11,11.48A30.52,30.52,0,0,0,391.85,734.7Z"/><path class="cls-1" d="M526.93,749.65a8.93,8.93,0,0,1-6.44-2.17c-1.5-1.45-2.26-3.62-2.26-6.52V663.25a7.88,7.88,0,0,1,8.7-8.69q4.34,0,6.52,2.17c1.44,1.45,2.17,3.62,2.17,6.52V741a8.93,8.93,0,0,1-2.17,6.43Q531.26,749.66,526.93,749.65Zm-.18-59.45a34.66,34.66,0,0,1,5.13-18.69,37.65,37.65,0,0,1,13.82-13.13,38.54,38.54,0,0,1,19.12-4.87q10.44,0,15.56,3.39T584.3,665a6.74,6.74,0,0,1-2,3.74,6.92,6.92,0,0,1-3.39,1.65,10.33,10.33,0,0,1-4.18-.18,48.74,48.74,0,0,0-20-.34q-8.87,1.9-14,7.12a18.09,18.09,0,0,0-5.13,13.22Z"/><path class="cls-1" d="M687,749.48q-5.4,0-8.35-5.74L641.84,666a7,7,0,0,1-.26-5.82,8.31,8.31,0,0,1,4.43-4.44,7.32,7.32,0,0,1,6-.52,8,8,0,0,1,4.6,4L691,733.48h-8.35l34.08-74.23a8,8,0,0,1,4.78-4,8.61,8.61,0,0,1,6.52.52,7.37,7.37,0,0,1,4.17,4.35,7.53,7.53,0,0,1-.35,5.91L695,743.74Q692.44,749.49,687,749.48Z"/><path class="cls-1" d="M843.5,750.35a52.32,52.32,0,0,1-25.64-6.17,45.17,45.17,0,0,1-17.56-17A48.55,48.55,0,0,1,794,702.19q0-14.25,6-25.12a43.88,43.88,0,0,1,16.61-17,47.49,47.49,0,0,1,24.33-6.17q13.56,0,23.3,6a39.06,39.06,0,0,1,14.86,16.52q5.13,10.51,5.13,24.25a7.24,7.24,0,0,1-2.26,5.47,7.94,7.94,0,0,1-5.73,2.18H806.12V694.37h69.54l-7.12,4.87a37.29,37.29,0,0,0-3.48-15.56,25.35,25.35,0,0,0-24.17-14.87q-9.9,0-16.95,4.35a28.09,28.09,0,0,0-10.69,11.91,38.94,38.94,0,0,0-3.65,17.12,33.23,33.23,0,0,0,4.35,17,31.65,31.65,0,0,0,12,11.82,34.92,34.92,0,0,0,17.56,4.35,33.08,33.08,0,0,0,11-2,34.17,34.17,0,0,0,9.13-4.61,9.91,9.91,0,0,1,5.65-2,7.58,7.58,0,0,1,5.3,1.83,8.26,8.26,0,0,1,3.13,5.73,6.17,6.17,0,0,1-2.78,5.39,48.08,48.08,0,0,1-14.69,7.65A52.64,52.64,0,0,1,843.5,750.35Z"/><path class="cls-1" d="M996.48,745.83a7.93,7.93,0,0,1-6.17.26,8.92,8.92,0,0,1-4.6-4.43L945.9,666a7.06,7.06,0,0,1-.44-6.34,8.31,8.31,0,0,1,15.39-.26l38.07,75.62a10.32,10.32,0,0,1,1.3,6.34A5.56,5.56,0,0,1,996.48,745.83ZM976,791.38a10.86,10.86,0,0,1-4.17-1q-7.65-3.48-4.17-11l53-119.78q3.48-7.3,10.95-4.17,7.83,3.3,4.35,11L982.75,786Q980.67,791.38,976,791.38Z"/></g></g></svg>